<svg width="14" height="14" viewBox="0 0 14 14" fill="none" xmlns="http://www.w3.org/2000/svg">
<path d="M1.19922 2.21875C1.05859 2.05469 1 1.87891 1.02344 1.69141C1.04688 1.50391 1.12891 1.33984 1.26953 1.19922C1.41016 1.05859 1.58594 0.988281 1.79688 0.988281H12.2031C12.4141 0.988281 12.5898 1.05859 12.7305 1.19922C12.8711 1.33984 12.9531 1.50391 12.9766 1.69141C13 1.87891 12.9414 2.05469 12.8008 2.21875C12.4961 2.59375 12.1562 3.02734 11.7812 3.51953C11.4062 4.01172 11.0195 4.50391 10.6211 4.99609C10.2461 5.48828 9.89453 5.94531 9.56641 6.36719C9.26172 6.78906 9.00391 7.12891 8.79297 7.38672C8.60547 7.62109 8.51172 7.73828 8.51172 7.73828V12.2383C8.51172 12.4492 8.42969 12.6367 8.26562 12.8008C8.125 12.9414 7.94922 13.0117 7.73828 13.0117H6.26172C6.05078 13.0117 5.86328 12.9414 5.69922 12.8008C5.55859 12.6367 5.48828 12.4492 5.48828 12.2383V7.73828C5.48828 7.73828 5.38281 7.62109 5.17188 7.38672C4.98438 7.12891 4.72656 6.78906 4.39844 6.36719C4.09375 5.94531 3.74219 5.48828 3.34375 4.99609C2.96875 4.50391 2.59375 4.01172 2.21875 3.51953C1.84375 3.02734 1.50391 2.59375 1.19922 2.21875Z" fill="white"/>
</svg>
