<svg width="15" height="13" viewBox="0 0 15 13" fill="none" xmlns="http://www.w3.org/2000/svg">
<path d="M7.5625 10.375C8.5625 9.47917 9.30208 8.80208 9.78125 8.34375C10.2604 7.88542 10.7812 7.34375 11.3438 6.71875C11.9062 6.09375 12.2917 5.54167 12.5 5.0625C12.7292 4.58333 12.8438 4.11458 12.8438 3.65625C12.8438 2.98958 12.6146 2.4375 12.1562 2C11.7188 1.5625 11.1667 1.34375 10.5 1.34375C9.97917 1.34375 9.48958 1.48958 9.03125 1.78125C8.59375 2.07292 8.29167 2.44792 8.125 2.90625H6.875C6.70833 2.44792 6.39583 2.07292 5.9375 1.78125C5.5 1.48958 5.02083 1.34375 4.5 1.34375C3.83333 1.34375 3.27083 1.5625 2.8125 2C2.375 2.4375 2.15625 2.98958 2.15625 3.65625C2.15625 4.11458 2.26042 4.58333 2.46875 5.0625C2.69792 5.54167 3.09375 6.09375 3.65625 6.71875C4.21875 7.34375 4.73958 7.88542 5.21875 8.34375C5.69792 8.80208 6.4375 9.47917 7.4375 10.375L7.5 10.4375L7.5625 10.375ZM10.5 0C11.5417 0 12.4062 0.354167 13.0938 1.0625C13.8021 1.77083 14.1562 2.63542 14.1562 3.65625C14.1562 4.26042 14.0417 4.85417 13.8125 5.4375C13.5833 6 13.1562 6.63542 12.5312 7.34375C11.9271 8.05208 11.375 8.64583 10.875 9.125C10.375 9.60417 9.57292 10.3438 8.46875 11.3438L7.5 12.2188L6.53125 11.375C5.09375 10.0833 4.05208 9.11458 3.40625 8.46875C2.78125 7.82292 2.19792 7.0625 1.65625 6.1875C1.11458 5.3125 0.84375 4.46875 0.84375 3.65625C0.84375 2.63542 1.1875 1.77083 1.875 1.0625C2.58333 0.354167 3.45833 0 4.5 0C5.70833 0 6.70833 0.46875 7.5 1.40625C8.29167 0.46875 9.29167 0 10.5 0Z" fill="white"/>
</svg>
